<svg id="FilledOutline" height="512" viewBox="0 0 512 512" width="512" xmlns="http://www.w3.org/2000/svg"><path d="m476.79 367.87c-3.65 13.67 1.92 31.18-5.01 43.15-7.02 12.14-25.03 16.02-34.89 25.87s-13.73 27.87-25.87 34.89c-11.97 6.93-29.48 1.36-43.15 5.01-13.21 3.53-25.54 17.21-39.87 17.21s-26.66-13.68-39.87-17.21c-13.67-3.65-31.18 1.92-43.15-5.01-12.14-7.02-16.02-25.03-25.87-34.89s-27.87-13.73-34.89-25.87c-6.92-11.95-1.38-29.43-4.99-43.09-.01-.02-.01-.04-.02-.06-3.53-13.21-17.21-25.54-17.21-39.87s13.68-26.66 17.21-39.87c3.65-13.67-1.92-31.18 5.01-43.15 7.02-12.14 25.03-16.02 34.89-25.87s13.73-27.87 25.87-34.89c11.97-6.93 29.48-1.36 43.15-5.01 13.21-3.53 25.54-17.21 39.87-17.21 11.18 0 21.14 8.32 31.25 13.65a41.677 41.677 0 0 0 8.62 3.56c13.67 3.65 31.18-1.92 43.15 5.01 12.14 7.02 16.02 25.03 25.87 34.89s27.87 13.73 34.89 25.87c6.93 11.97 1.36 29.48 5.01 43.15 3.53 13.21 17.21 25.54 17.21 39.87s-13.68 26.66-17.21 39.87z" fill="#f79726"/><path d="m360 192a176 176 0 0 1 -176 176c-1.6 0-3.19-.02-4.77-.07-.01-.02-.01-.04-.02-.06-3.53-13.21-17.21-25.54-17.21-39.87s13.68-26.66 17.21-39.87c3.65-13.67-1.92-31.18 5.01-43.15 7.02-12.14 25.03-16.02 34.89-25.87s13.73-27.87 25.87-34.89c11.97-6.93 29.48-1.36 43.15-5.01 13.21-3.53 25.54-17.21 39.87-17.21 11.18 0 21.14 8.32 31.25 13.65.5 5.38.75 10.84.75 16.35z" fill="#e8732d"/><path d="m448 328a119.92 119.92 0 1 1 -89.13-115.98 120.005 120.005 0 0 1 89.13 115.98z" fill="#fdc01e"/><circle cx="361.941" cy="361.941" fill="#e5e5e4" r="16"/><circle cx="361.941" cy="294.059" fill="#e5e5e4" r="16"/><circle cx="294.059" cy="361.941" fill="#e5e5e4" r="16"/><path d="m358.87 212.02a176.082 176.082 0 0 1 -144.91 153.43 120.068 120.068 0 0 1 144.91-153.43z" fill="#f9ab23"/><circle cx="184" cy="192" fill="#0085aa" r="160"/><circle cx="184" cy="192" fill="#0093b9" r="128"/><g fill="#e5e5e4"><circle cx="136" cy="192" r="16"/><circle cx="232" cy="192" r="16"/><circle cx="184" cy="144" r="16"/><circle cx="184" cy="240" r="16"/></g><path d="m352 192c0-92.636-75.364-168-168-168s-168 75.364-168 168 75.364 168 168 168 168-75.364 168-168zm-320 0c0-83.813 68.187-152 152-152s152 68.187 152 152-68.187 152-152 152-152-68.187-152-152z"/><path d="m320 192c0-74.991-61.009-136-136-136s-136 61.009-136 136 61.009 136 136 136 136-61.009 136-136zm-256 0a120 120 0 1 1 120 120 120.136 120.136 0 0 1 -120-120z"/><path d="m136 168a24 24 0 1 0 24 24 24.027 24.027 0 0 0 -24-24zm0 32a8 8 0 1 1 8-8 8.009 8.009 0 0 1 -8 8z"/><path d="m232 216a24 24 0 1 0 -24-24 24.027 24.027 0 0 0 24 24zm0-32a8 8 0 1 1 -8 8 8.009 8.009 0 0 1 8-8z"/><path d="m184 168a24 24 0 1 0 -24-24 24.027 24.027 0 0 0 24 24zm0-32a8 8 0 1 1 -8 8 8.009 8.009 0 0 1 8-8z"/><path d="m208 240a24 24 0 1 0 -24 24 24.027 24.027 0 0 0 24-24zm-32 0a8 8 0 1 1 8 8 8.009 8.009 0 0 1 -8-8z"/><path d="m491.636 300.294c-3.053-5.047-5.937-9.815-7.118-14.233-1.263-4.724-1.163-10.48-1.057-16.575.168-9.685.342-19.7-4.754-28.507-5.172-8.939-14.4-14.027-22.542-18.517-5.273-2.907-10.253-5.653-13.614-9.013s-6.106-8.341-9.013-13.614c-4.489-8.142-9.578-17.37-18.516-22.541-8.808-5.1-18.827-4.925-28.508-4.755-6.1.1-11.85.205-16.575-1.057l-4.131 15.457c6.889 1.841 14.052 1.717 20.983 1.6 7.844-.137 15.257-.265 20.218 2.606 5.088 2.943 8.7 9.489 12.518 16.418 3.317 6.017 6.748 12.238 11.711 17.2s11.185 8.393 17.2 11.711c6.93 3.82 13.475 7.429 16.419 12.517 2.87 4.961 2.742 12.372 2.605 20.218-.12 6.928-.244 14.093 1.6 20.983 1.769 6.62 5.386 12.6 8.885 18.383 4.141 6.848 8.053 13.316 8.053 19.425s-3.912 12.577-8.054 19.425c-3.5 5.783-7.116 11.763-8.885 18.383-1.842 6.89-1.718 14.054-1.6 20.983.136 7.846.265 15.257-2.606 20.218-2.943 5.088-9.489 8.7-16.418 12.518-6.017 3.317-12.238 6.748-17.2 11.711s-8.393 11.184-11.711 17.2c-3.82 6.93-7.429 13.475-12.517 16.419-4.961 2.87-12.371 2.742-20.218 2.605-6.928-.119-14.093-.244-20.983 1.6-6.62 1.769-12.6 5.386-18.383 8.885-6.848 4.141-13.316 8.053-19.425 8.053s-12.577-3.912-19.425-8.054c-5.783-3.5-11.763-7.116-18.383-8.885-6.89-1.842-14.053-1.716-20.983-1.6-7.843.137-15.257.265-20.218-2.606-5.088-2.943-8.7-9.489-12.518-16.418-3.317-6.017-6.748-12.239-11.711-17.2s-11.185-8.393-17.2-11.711c-6.93-3.82-13.475-7.429-16.419-12.517-2.87-4.961-2.742-12.372-2.6-20.217.064-3.686.13-7.5-.111-11.3l-15.968 1.01c.2 3.157.142 6.485.081 10.01-.168 9.684-.342 19.7 4.754 28.506 5.172 8.939 14.4 14.027 22.542 18.517 5.273 2.907 10.253 5.653 13.614 9.013s6.106 8.341 9.013 13.614c4.489 8.142 9.578 17.37 18.516 22.541 8.807 5.1 18.824 4.922 28.508 4.755 6.1-.1 11.851-.206 16.575 1.057 4.418 1.181 9.186 4.065 14.233 7.118 8.025 4.861 17.128 10.367 27.7 10.367s19.675-5.506 27.706-10.364c5.047-3.053 9.815-5.937 14.233-7.118 4.725-1.262 10.483-1.161 16.575-1.057 9.687.169 19.7.342 28.507-4.754 8.939-5.172 14.027-14.4 18.517-22.542 2.907-5.273 5.653-10.253 9.013-13.613s8.341-6.107 13.614-9.014c8.141-4.489 17.37-9.578 22.541-18.516 5.1-8.808 4.923-18.823 4.755-28.508-.106-6.1-.205-11.851 1.057-16.575 1.181-4.418 4.065-9.186 7.118-14.233 4.858-8.031 10.364-17.134 10.364-27.706s-5.506-19.675-10.364-27.706z"/><path d="m225.316 372.8-14.662 6.4a128.02 128.02 0 1 0 160.012-171.914l-5.332 15.085a112.02 112.02 0 1 1 -140.018 150.429z"/><path d="m378.912 378.912a24.028 24.028 0 1 0 -16.971 7.018 24.026 24.026 0 0 0 16.971-7.018zm-24.971-16.971a8 8 0 1 1 2.343 5.657 7.948 7.948 0 0 1 -2.343-5.657z"/><path d="m344.971 311.029a24 24 0 1 0 0-33.941 23.923 23.923 0 0 0 0 33.941zm11.313-22.629a8 8 0 1 1 -2.343 5.657 7.976 7.976 0 0 1 2.343-5.657z"/><path d="m311.029 378.912a24.028 24.028 0 1 0 -16.97 7.018 24.026 24.026 0 0 0 16.97-7.018zm-22.629-11.312a8 8 0 1 1 11.314 0 8.01 8.01 0 0 1 -11.314 0z"/></svg>