<svg height="512pt" viewBox="0 -138 512.001 512" width="512pt" xmlns="http://www.w3.org/2000/svg"><path d="m292.324219 228.207031h-212.679688c-39.839843 0-72.132812-32.296875-72.132812-72.132812v-91.3125h284.8125zm0 0" fill="#f9a806"/><path d="m292.324219 64.761719c0-31.617188-63.757813-57.25-142.40625-57.25-78.648438 0-142.40625 25.632812-142.40625 57.25 0 31.621093 63.757812 57.253906 142.40625 57.253906 78.648437 0 142.40625-25.632813 142.40625-57.253906zm0 0" fill="#ffb509"/><path d="m292.316406 64.757812c0 31.621094-63.753906 57.257813-142.398437 57.257813-68.789063 0-126.175781-19.605469-139.492188-45.683594 26.011719 13.769531 67.148438 22.652344 113.457031 22.652344 78.644532 0 142.402344-25.632813 142.402344-57.257813 0-3.964843-1.003906-7.828124-2.914062-11.5625 18.164062 9.601563 28.945312 21.585938 28.945312 34.59375zm0 0" fill="#f9a806"/><path d="m236.007812 64.761719c0-16.03125-38.542968-29.027344-86.089843-29.027344s-86.09375 12.996094-86.09375 29.027344c0 16.035156 38.546875 29.03125 86.09375 29.03125s86.089843-12.996094 86.089843-29.03125zm0 0" fill="#d3d3d8"/><path d="m236.003906 64.757812c0 16.03125-38.542968 29.027344-86.085937 29.027344-36.347657 0-67.4375-7.597656-80.066407-18.332031 14.679688 3.914063 33.253907 6.269531 53.460938 6.269531 47.542969 0 86.085938-13 86.085938-29.03125 0-3.773437-2.132813-7.378906-6.027344-10.691406 19.886718 5.316406 32.632812 13.535156 32.632812 22.757812zm0 0" fill="#babac0"/><path d="m494.191406 228.203125h-98.640625v-106.1875h98.640625c5.6875 0 10.296875 4.609375 10.296875 10.296875v85.59375c0 5.6875-4.609375 10.296875-10.296875 10.296875zm0 0" fill="#d93131"/><path d="m494.191406 228.203125h-16.898437v-106.1875h16.898437c5.6875 0 10.296875 4.609375 10.296875 10.296875v85.59375c0 5.6875-4.609375 10.296875-10.296875 10.296875zm0 0" fill="#cb2c2c"/><path d="m471.589844 175.109375c0 11.914063-9.65625 21.566406-21.570313 21.566406-11.910156 0-21.566406-9.652343-21.566406-21.566406 0-11.910156 9.65625-21.566406 21.566406-21.566406 11.914063 0 21.570313 9.65625 21.570313 21.566406zm0 0" fill="#d3d3d8"/><path d="m471.589844 175.109375c0 11.914063-9.65625 21.566406-21.570313 21.566406-11.910156 0-21.566406-9.652343-21.566406-21.566406 0-11.910156 9.65625-21.566406 21.566406-21.566406 11.914063 0 21.570313 9.65625 21.570313 21.566406zm0 0" fill="#d3d3d8"/><path d="m471.585938 175.105469c0 11.914062-9.652344 21.566406-21.566407 21.566406-8.945312 0-16.613281-5.433594-19.886719-13.195313 2.570313 1.082032 5.40625 1.683594 8.371094 1.683594 11.914063 0 21.566406-9.65625 21.566406-21.570312 0-2.964844-.601562-5.796875-1.679687-8.359375 7.75 3.261719 13.195313 10.933593 13.195313 19.875zm0 0" fill="#babac0"/><path d="m395.550781 122.015625v106.1875h-315.902343c-39.84375 0-72.136719-32.292969-72.136719-72.125v-91.320313c0 31.625 63.757812 57.253907 142.398437 57.253907h245.640625zm0 0" fill="#ffb509"/><path d="m367.519531 122.015625h28.035157v106.191406h-28.035157zm0 0" fill="#f9a806"/><path d="m450.019531 146.03125c-16.03125 0-29.078125 13.046875-29.078125 29.078125 0 16.035156 13.046875 29.078125 29.078125 29.078125 16.035157 0 29.078125-13.042969 29.078125-29.078125 0-16.03125-13.042968-29.078125-29.078125-29.078125zm0 43.136719c-7.75 0-14.054687-6.304688-14.054687-14.058594 0-7.75 6.304687-14.058594 14.054687-14.058594 7.753907 0 14.058594 6.308594 14.058594 14.058594 0 7.753906-6.304687 14.058594-14.058594 14.058594zm0 0"/><path d="m149.917969 101.300781c46.511719 0 93.601562-12.550781 93.601562-36.539062s-47.085937-36.539063-93.601562-36.539063-93.601563 12.550782-93.601563 36.539063 47.085938 36.539062 93.601563 36.539062zm-58.476563-49.945312c15.507813-5.230469 36.273438-8.109375 58.476563-8.109375 22.199219 0 42.964843 2.878906 58.472656 8.109375 15.902344 5.359375 20.105469 11.113281 20.105469 13.40625 0 2.296875-4.203125 8.050781-20.105469 13.410156-15.507813 5.230469-36.273437 8.109375-58.472656 8.109375-22.203125 0-42.972657-2.878906-58.480469-8.109375-15.902344-5.359375-20.101562-11.117187-20.101562-13.410156s4.203124-8.046875 20.105468-13.40625zm0 0"/><path d="m494.191406 114.503906h-136.390625c-4.148437 0-7.507812 3.363282-7.507812 7.511719 0 4.144531 3.359375 7.507813 7.507812 7.507813h30.238281v91.171874h-17.773437v-37.976562c0-4.148438-3.363281-7.511719-7.511719-7.511719-4.144531 0-7.507812 3.363281-7.507812 7.511719v37.976562h-17.773438v-26.707031c0-4.148437-3.363281-7.511719-7.511718-7.511719-4.148438 0-7.507813 3.363282-7.507813 7.511719v26.707031h-17.777344v-26.707031c0-4.148437-3.363281-7.511719-7.507812-7.511719-4.148438 0-7.511719 3.363282-7.511719 7.511719v26.707031h-17.773438v-26.707031c0-4.148437-3.363281-7.511719-7.511718-7.511719-4.144532 0-7.507813 3.363282-7.507813 7.511719v26.707031h-17.777343v-26.707031c0-4.148437-3.359376-7.511719-7.507813-7.511719s-7.511719 3.363282-7.511719 7.511719v26.707031h-17.773437v-37.976562c0-4.148438-3.363281-7.511719-7.511719-7.511719-4.144531 0-7.507812 3.363281-7.507812 7.511719v37.976562h-17.773438v-26.707031c0-4.148437-3.363281-7.511719-7.511719-7.511719-4.148437 0-7.511719 3.363282-7.511719 7.511719v26.707031h-17.773437v-26.707031c0-4.148437-3.363281-7.511719-7.507813-7.511719-4.148437 0-7.511718 3.363282-7.511718 7.511719v26.707031h-17.773438v-26.707031c0-4.148437-3.363281-7.511719-7.511718-7.511719-4.148438 0-7.507813 3.363282-7.507813 7.511719v26.707031h-13.242187c-1.527344 0-3.035157-.074218-4.535157-.175781v-26.53125c0-4.148437-3.359375-7.511719-7.507812-7.511719-4.148438 0-7.511719 3.363282-7.511719 7.511719v23.675781c-6.417969-2.042968-12.394531-5.066406-17.773438-8.886718v-26.058594c0-4.148438-3.363281-7.511719-7.511718-7.511719-4.144532 0-7.507813 3.363281-7.507813 7.511719v11.1875c-7.714843-10.644531-12.28125-23.710938-12.28125-37.828125v-62.242187c.007813.007812.019531.015624.03125.023437 16.832031 14.863281 39.308594 22.398437 60.589844 27.484375 24.265625 5.796875 49.347656 8.179688 74.269531 8.179688h161.164063c4.144531 0 7.507812-3.363282 7.507812-7.507813 0-4.148437-3.363281-7.511719-7.507812-7.511719h-11.242188v-49.742187c0-18.566407-16.484375-35.417969-46.417969-47.449219-27.765624-11.164062-64.523437-17.3125-103.496093-17.3125-28.726563 0-56.558594 3.371094-80.488281 9.742188-4.007813 1.070312-6.390626 5.183593-5.324219 9.191406 1.066406 4.007812 5.183593 6.390625 9.191406 5.324218 22.6875-6.042968 49.179687-9.238281 76.621094-9.238281 79.496093 0 134.894531 26.214844 134.894531 49.742188 0 13.191406-14.554688 22.453125-24.730469 27.859375-15.121093 8.03125-31.550781 12.960937-48.308593 16.46875-12.398438 2.597656-25.003907 4.1875-37.644532 4.972656-25.039062 1.554688-50.207031-.027344-75.039062-3.398438-20.933594-2.84375-42.917969-8.855468-61.40625-19.289062-9.445313-5.332031-22.570313-14.230469-22.660156-26.511719 0-.035156-.003907-.070312-.003907-.105469 0-6 3.53125-15.273437 20.34375-25.367187 3.554688-2.136719 4.707031-6.75 2.570313-10.304687-2.136719-3.554688-6.75-4.707032-10.304688-2.570313-22.832031 13.710937-27.62499975 28.363281-27.628906 38.242187v91.320313c0 39.203125 28.488281 71.859375 65.84375 78.414063.320312.078124.644531.140624.976562.175781 4.179688.679687 8.457032 1.046875 12.828126 1.046875h414.542968c9.820313 0 17.808594-7.988282 17.808594-17.808594v-85.59375c0-9.820312-7.988281-17.808594-17.808594-17.808594zm-240.777344-2.289062c13.148438-5.285156 23.699219-11.5 31.398438-18.382813v20.671875h-37.445312c2.054687-.738281 4.078124-1.5 6.046874-2.289062zm243.566407 105.691406c0 1.539062-1.25 2.789062-2.789063 2.789062h-91.132812v-91.171874h91.132812c1.539063 0 2.789063 1.25 2.789063 2.789062zm0 0"/></svg>