<svg id="Capa_1" enable-background="new 0 0 511.523 511.523" height="512" viewBox="0 0 511.523 511.523" width="512" xmlns="http://www.w3.org/2000/svg"><g id="XMLID_45_"><g id="XMLID_49_"><path id="XMLID_653_" d="m21.213 206.636 41.542-41.542c6.15-6.15 14.328-9.538 23.027-9.538 8.698 0 16.876 3.387 23.026 9.538 24.394 24.394 64.084 24.395 88.479 0l69.008-69.008c7.022-7.021 16.358-10.889 26.289-10.889s19.267 3.867 26.288 10.889l22.656 22.656 21.213-21.214-22.656-22.656c-12.688-12.688-29.558-19.675-47.501-19.675-17.944 0-34.813 6.987-47.502 19.675l-69.008 69.008c-12.697 12.696-33.356 12.695-46.054 0-11.816-11.817-27.528-18.325-44.239-18.325-16.712 0-32.424 6.508-44.24 18.325l-41.541 41.543z" fill="#00dd7b"/></g><path id="XMLID_1448_" d="m119.768 408.359c72.555-99.061 241.809-329.963 246.406-334.559 13.547-13.547 31.558-21.007 50.715-21.007s37.169 7.46 50.716 21.007c27.964 27.964 27.964 73.465 0 101.43-4.597 4.597-235.498 173.851-334.56 246.407l-49.624 36.347z" fill="#e4ebef"/><path id="XMLID_1977_" d="m467.604 175.23c-4.597 4.597-235.498 173.851-334.56 246.407l-49.624 36.347 384.184-384.184c27.964 27.964 27.964 73.466 0 101.43z" fill="#c7e2e5"/><g id="XMLID_50_"><path id="XMLID_1351_" d="m490.311 458.73 21.213-21.213-42.987-42.987c-12.863-12.864-19.948-29.967-19.948-48.159s7.085-35.295 19.948-48.159c28.857-28.857 28.857-75.812 0-104.669l-60.338-60.338-21.213 21.213 60.338 60.338c8.313 8.313 12.891 19.366 12.891 31.122s-4.578 22.809-12.891 31.121c-38.252 38.252-38.252 100.493 0 138.744z" fill="#22bf66"/></g><g id="XMLID_54_"><path id="XMLID_1367_" d="m363.752 128.812h67.68v30h-67.68z" fill="#a7d2d7" transform="matrix(.707 -.707 .707 .707 14.76 323.26)"/></g><path id="XMLID_1982_" d="m369.055 141.616h67.68v14.999h-67.68z" fill="#7ba0b0" transform="matrix(.707 -.707 .707 .707 12.565 328.565)"/></g></svg>